<svg version="1.0" width="100%" height="100%" viewBox="0 0 496.000000 640.000000"
 preserveAspectRatio="xMidYMid meet">
  <g transform="translate(0.000000,640.000000) scale(0.100000,-0.100000)"
  fill="#000000" stroke="none">
    <path d="M2620 5966 c0 -14 -5 -28 -11 -32 -7 -4 -9 -29 -4 -74 6 -63 5 -69
    -16 -84 -13 -9 -31 -16 -41 -16 -16 0 -17 6 -12 53 5 44 3 55 -14 70 -18 17
    -21 17 -36 2 -9 -9 -16 -25 -16 -35 0 -16 -7 -17 -67 -12 -72 5 -83 12 -83 53
    0 15 -7 29 -15 33 -23 8 -73 -13 -80 -35 -4 -12 -15 -19 -32 -19 -14 0 -49 -7
    -79 -16 -43 -12 -58 -13 -69 -4 -20 17 -19 37 2 49 10 5 16 11 13 13 -3 2 -17
    14 -32 27 l-27 23 -78 -26 c-93 -31 -108 -40 -98 -56 7 -12 48 -10 108 5 24 7
    27 5 27 -17 0 -19 5 -24 22 -24 30 1 34 -25 9 -55 -17 -21 -28 -24 -86 -24
    -66 0 -67 0 -103 -43 -29 -33 -49 -46 -92 -57 -73 -20 -240 -32 -240 -17 0 16
    118 102 178 129 41 20 65 24 112 21 33 -1 60 0 60 4 0 16 -56 48 -85 48 -56 0
    -278 -131 -295 -174 -5 -13 -20 -26 -36 -30 -46 -12 -124 -68 -263 -191 -129
    -114 -191 -188 -191 -229 0 -15 8 -10 37 25 53 63 146 154 173 169 23 12 23
    12 17 -29 -6 -51 7 -53 32 -3 27 53 96 119 156 149 37 19 70 27 125 30 l75 4
    -74 -71 c-40 -39 -94 -82 -120 -97 -25 -14 -67 -48 -94 -76 -34 -36 -53 -48
    -67 -44 -23 6 -39 -14 -95 -121 -22 -42 -56 -89 -80 -110 -36 -32 -42 -41 -38
    -69 4 -25 1 -32 -16 -38 -42 -13 -202 -211 -241 -297 -31 -69 -7 -78 59 -22
    86 74 56 5 -54 -123 -61 -70 -75 -93 -75 -120 0 -38 -24 -46 -35 -12 -12 37
    -38 17 -56 -43 -55 -179 -48 -470 13 -593 51 -101 78 -232 78 -373 0 -98 12
    -202 22 -202 5 0 16 17 24 37 14 32 14 48 4 115 -16 101 -9 166 20 190 38 30
    111 19 157 -24 17 -16 20 -25 12 -45 -22 -57 -1 -115 47 -134 21 -7 23 -12 14
    -28 -16 -31 -12 -56 25 -145 19 -47 35 -98 35 -114 0 -20 7 -32 23 -41 13 -7
    32 -27 43 -44 17 -28 19 -48 16 -167 -2 -106 1 -144 13 -174 28 -67 -11 -194
    -65 -211 -15 -5 -20 -15 -20 -43 0 -20 -9 -52 -21 -71 l-21 -34 34 -26 c111
    -87 146 -138 128 -186 -17 -44 -12 -100 10 -120 18 -17 20 -17 26 -1 12 31 -5
    130 -40 231 -59 173 -60 244 -3 280 45 29 53 67 40 188 -8 72 -8 114 0 152 9
    47 8 59 -11 110 -19 50 -21 62 -10 91 12 33 10 36 -26 73 -27 28 -39 50 -43
    80 -5 39 -4 41 20 41 16 0 34 -10 46 -26 l21 -27 0 38 c0 39 -35 125 -50 125
    -4 0 -10 -7 -14 -15 -8 -21 -65 -20 -73 2 -8 22 31 53 67 53 43 0 52 19 44 92
    -4 44 -2 72 6 88 19 35 13 136 -16 267 -21 97 -25 138 -22 234 3 107 5 120 35
    176 54 103 65 154 67 308 2 128 5 148 34 232 83 245 163 343 415 510 208 137
    266 163 387 168 70 3 70 4 70 29 0 23 -2 23 -41 15 -29 -7 -45 -6 -55 2 -12 9
    -20 7 -38 -10 -22 -21 -26 -22 -52 -8 -40 21 -98 83 -90 96 11 17 34 13 74
    -14 20 -14 47 -25 60 -25 25 0 26 6 7 68 -6 19 -4 22 17 22 28 0 52 -22 67
    -63 13 -33 37 -37 26 -4 -3 12 -9 44 -12 70 -4 36 -12 52 -30 64 -31 21 -70 4
    -86 -36 -9 -25 -13 -27 -37 -18 -41 15 -95 1 -124 -34 -14 -17 -26 -37 -26
    -44 0 -8 18 -29 40 -46 42 -34 50 -58 25 -79 -11 -9 -23 -3 -65 36 -48 45 -62
    76 -40 89 15 9 12 45 -4 45 -8 0 -18 -4 -21 -10 -3 -5 -31 -10 -61 -10 -57 0
    -67 -9 -35 -31 14 -10 20 -30 23 -72 4 -55 3 -58 -28 -82 -37 -29 -54 -32 -54
    -10 0 22 -47 42 -63 26 -9 -9 -9 -16 0 -30 11 -17 6 -18 -97 -17 -105 1 -108
    2 -92 20 29 31 71 47 174 66 101 18 121 26 102 38 -25 16 -36 53 -25 85 18 51
    49 77 82 70 19 -3 38 1 55 12 25 16 27 16 48 -4 30 -28 33 -27 50 13 11 25 28
    42 65 60 27 14 54 33 59 42 8 15 12 15 39 -5 16 -12 42 -23 58 -24 27 -2 30 1
    33 31 2 21 9 32 19 32 9 0 57 19 106 42 86 39 93 41 131 29 23 -7 58 -14 78
    -15 28 -1 47 -11 76 -39 21 -20 41 -37 45 -37 3 0 15 9 26 21 l19 21 16 -30
    c11 -21 16 -58 16 -111 0 -87 11 -128 36 -138 46 -17 59 81 19 140 -29 42 -27
    50 16 72 38 20 37 32 -6 49 -49 21 -48 52 3 59 20 3 52 9 71 13 l34 7 -7 -35
    c-7 -40 10 -62 59 -73 98 -22 112 -36 79 -83 -23 -33 -47 -27 -72 16 -43 76
    -79 88 -102 32 -9 -21 -9 -33 0 -50 13 -24 67 -50 105 -50 14 0 25 -3 25 -6 0
    -23 -29 -46 -80 -65 -44 -16 -60 -27 -60 -40 0 -23 14 -23 93 -4 70 16 97 38
    97 77 0 15 5 28 10 28 23 0 60 50 60 79 0 36 13 46 39 31 33 -17 35 -47 6
    -106 -36 -74 -97 -117 -212 -150 -20 -5 -4 -31 30 -47 18 -8 72 -18 122 -22
    49 -4 97 -10 106 -14 31 -11 470 -443 534 -525 77 -99 124 -183 174 -312 81
    -210 96 -325 87 -684 -4 -160 -3 -320 4 -402 12 -166 3 -319 -40 -634 -28
    -198 -52 -462 -43 -473 1 -2 13 0 26 6 21 10 25 24 46 183 23 174 72 434 84
    446 12 12 37 -18 47 -57 17 -62 5 -309 -20 -403 -28 -111 -59 -159 -135 -209
    l-63 -42 -27 -90 c-66 -221 -152 -385 -310 -590 -53 -69 -117 -164 -141 -210
    -106 -199 -294 -295 -577 -295 -129 0 -244 19 -350 57 -84 29 -230 100 -302
    146 -96 61 -270 194 -304 232 -39 45 -81 129 -81 165 0 27 -106 144 -121 134
    -18 -11 -8 -34 30 -72 30 -29 45 -58 64 -118 41 -126 55 -153 97 -182 22 -15
    93 -65 157 -111 232 -165 446 -263 673 -307 97 -18 277 -18 358 1 81 19 194
    72 255 118 26 21 50 37 54 37 11 0 -6 -198 -29 -340 -14 -90 -22 -185 -22
    -285 -1 -82 -5 -156 -10 -163 -4 -7 -20 -18 -34 -23 l-27 -11 40 -34 40 -35 7
    27 c34 127 51 362 33 461 -7 41 -6 43 17 43 21 0 26 -8 42 -67 10 -38 21 -108
    24 -157 l5 -88 40 5 c51 7 66 21 45 44 -9 10 -19 41 -23 68 -4 28 -25 109 -45
    180 -75 258 -75 276 -11 430 53 127 54 129 77 133 15 2 34 -21 80 -95 191
    -307 380 -714 488 -1053 20 -63 42 -127 48 -142 l10 -28 459 0 459 0 0 373 0
    372 -25 38 c-14 20 -30 37 -34 37 -15 0 -19 -49 -9 -93 14 -60 12 -96 -7 -117
    -14 -15 -16 -29 -10 -70 5 -34 3 -55 -5 -65 -10 -12 -8 -25 8 -63 38 -89 40
    -172 5 -207 -16 -16 -19 -12 -58 71 l-41 88 -21 -37 c-23 -38 -76 -77 -105
    -77 -10 0 -25 12 -34 28 -141 229 -303 439 -460 595 -84 84 -105 110 -95 120
    20 20 98 -30 196 -128 88 -88 117 -127 306 -403 50 -73 97 -136 105 -139 15
    -6 94 43 94 58 0 18 -105 185 -174 277 -41 53 -108 134 -149 179 -116 125
    -121 149 -25 113 101 -37 186 -126 327 -340 l76 -115 3 94 c3 103 3 104 -98
    235 -17 21 -30 43 -30 47 0 19 30 7 71 -27 32 -26 50 -34 73 -32 74 7 5 80
    -122 129 -31 12 -141 38 -245 59 -103 21 -215 48 -250 59 -98 31 -137 40 -320
    71 -195 33 -259 50 -308 83 -51 34 -49 56 19 149 165 229 275 450 330 667 23
    87 36 117 62 147 105 120 128 279 102 700 -26 431 31 786 167 1040 17 32 21
    56 21 140 0 236 -91 494 -270 767 -58 89 -66 97 -95 97 -20 0 -55 15 -94 40
    -34 22 -79 43 -101 46 -43 7 -75 35 -85 77 -10 39 6 36 137 -28 66 -33 114
    -51 116 -45 7 20 -50 89 -102 123 -28 19 -84 51 -124 72 -41 21 -102 64 -137
    95 -62 57 -82 67 -225 112 -67 21 -75 26 -75 48 0 24 2 25 54 23 53 -3 53 -2
    36 17 -9 10 -41 24 -71 30 -30 6 -54 13 -54 16 0 20 35 84 47 84 27 0 83 -47
    133 -113 50 -66 90 -100 90 -76 0 6 -11 25 -25 41 -24 29 -25 32 -10 54 14 22
    14 27 0 54 -21 40 -63 65 -150 91 -100 29 -117 37 -176 75 -38 24 -65 34 -93
    34 -31 0 -54 10 -96 40 -63 43 -147 80 -185 80 -15 0 -25 6 -25 14 0 28 -41
    66 -71 66 -24 0 -29 -4 -29 -24z"/>
    <path d="M2270 5667 c0 -58 5 -88 20 -117 11 -22 20 -57 20 -80 0 -55 23 -52
    38 4 12 45 62 106 88 106 8 0 21 -14 28 -30 12 -30 13 -31 34 -13 12 10 30 39
    41 66 l20 47 -37 -6 c-31 -5 -44 -1 -79 25 -24 17 -43 36 -43 41 0 6 -4 10
    -10 10 -5 0 -10 -17 -10 -39 0 -54 -18 -101 -40 -101 -23 0 -33 26 -20 50 16
    30 12 48 -20 82 l-29 33 -1 -78z"/>
    <path d="M2200 4295 c-16 -19 -6 -32 30 -40 37 -8 47 -23 28 -41 -12 -12 -20
    -11 -59 11 -119 67 -125 69 -158 55 -35 -14 -39 -26 -12 -35 28 -8 34 -33 11
    -45 -33 -17 -49 -11 -64 25 -10 23 -22 35 -35 35 -25 0 -51 -26 -51 -52 0 -15
    -4 -18 -17 -13 -84 36 -150 26 -215 -33 -43 -38 -77 -101 -78 -139 0 -32 15
    -28 45 11 29 38 52 49 145 70 180 40 382 44 543 11 69 -14 79 -14 107 0 59 30
    85 112 45 142 -28 20 -38 12 -50 -38 -15 -60 -37 -62 -64 -5 -24 49 -49 69
    -104 84 -28 8 -39 7 -47 -3z"/>
    <path d="M3151 4204 c-43 -37 -71 -85 -71 -121 0 -17 16 -18 228 -18 196 0
    234 -3 281 -19 65 -23 145 -97 156 -144 3 -18 11 -32 16 -32 19 0 21 52 4 93
    -10 23 -25 65 -35 92 -15 44 -23 53 -71 77 -100 50 -260 92 -394 104 l-70 6
    -44 -38z"/>
    <path d="M2030 4039 c-125 -22 -186 -53 -235 -119 -32 -43 -34 -107 -4 -160
    34 -61 63 -71 181 -68 57 1 153 -1 215 -6 96 -8 119 -6 156 8 57 21 88 53 67
    67 -18 11 -57 3 -116 -23 -26 -11 -60 -18 -82 -16 -36 3 -37 4 -34 40 7 78
    -90 132 -170 94 -24 -12 -41 -30 -54 -59 -23 -50 -56 -59 -97 -27 -55 44 -17
    123 82 168 46 22 70 26 136 26 91 -1 190 -32 200 -63 8 -27 51 -71 69 -71 22
    0 29 53 13 93 -37 88 -185 140 -327 116z"/>
    <path d="M3241 3956 c-9 -10 -29 -16 -58 -16 -36 0 -50 -6 -74 -29 -36 -37
    -39 -83 -6 -106 22 -15 22 -15 27 32 5 44 7 48 30 46 14 -2 34 -4 45 -5 11 -1
    48 5 83 12 51 12 71 12 110 1 93 -24 171 -88 187 -151 5 -21 0 -29 -36 -52
    -87 -56 -144 -45 -132 26 4 25 -1 39 -22 64 -24 29 -32 32 -81 32 -45 0 -59
    -5 -79 -24 -13 -13 -27 -37 -31 -53 -13 -54 -48 -57 -102 -8 -41 36 -52 36
    -52 0 0 -45 32 -58 153 -66 86 -5 123 -12 155 -28 37 -19 56 -21 171 -19 75 1
    127 6 124 11 -3 5 -9 54 -13 109 l-7 99 -44 45 c-70 73 -107 87 -229 92 -88 3
    -108 1 -119 -12z"/>
    <path d="M2920 3803 c-35 -13 -39 -23 -25 -57 8 -18 24 -89 35 -157 23 -133
    41 -185 90 -253 23 -32 33 -58 37 -102 8 -78 17 -94 54 -94 25 0 33 -6 45 -35
    17 -41 18 -79 3 -108 -17 -32 -28 -37 -90 -37 -63 0 -100 -22 -149 -86 -34
    -45 -37 -57 -12 -51 9 3 34 8 55 12 29 5 43 14 58 40 25 42 41 48 91 34 53
    -14 79 -6 101 30 37 62 23 114 -67 261 -25 41 -46 80 -46 87 0 22 44 14 92
    -16 53 -34 84 -45 91 -34 3 5 -20 22 -51 38 -31 16 -85 57 -118 90 -101 100
    -151 226 -142 354 3 36 4 72 1 79 -5 12 -27 15 -53 5z"/>
    <path d="M659 3043 c-7 -32 -12 -98 -12 -148 -1 -111 21 -187 78 -270 23 -33
    57 -87 77 -120 55 -90 119 -145 169 -145 19 0 15 6 -24 41 -26 22 -70 79 -99
    127 -28 47 -67 103 -85 123 -56 62 -63 91 -60 248 1 101 5 141 14 141 24 0 26
    24 3 42 -37 30 -48 23 -61 -39z"/>
    <path d="M2295 3040 c-12 -19 44 -97 92 -129 64 -42 103 -40 117 7 14 49 23
    46 202 -67 50 -32 134 -53 134 -34 0 19 -186 142 -233 153 -42 11 -54 10 -113
    -11 l-66 -23 -52 57 c-53 57 -69 66 -81 47z"/>
    <path d="M1953 2763 c-82 -105 -118 -215 -111 -334 3 -44 10 -85 16 -91 7 -7
    12 -10 12 -7 0 2 11 63 23 134 19 104 32 146 65 212 59 116 55 164 -5 86z"/>
    <path d="M3370 2693 c0 -6 12 -60 26 -120 14 -59 29 -148 32 -198 l7 -89 20
    29 c16 24 20 47 20 115 0 77 -3 92 -36 160 -38 78 -68 123 -69 103z"/>
    <path d="M3610 2534 c0 -4 -11 -72 -25 -153 -13 -80 -31 -202 -40 -271 -9 -71
    -27 -158 -43 -201 -22 -65 -25 -81 -14 -103 35 -77 75 31 118 322 13 91 34
    200 45 241 21 76 21 130 -2 157 -11 14 -39 20 -39 8z"/>
    <path d="M2292 2439 c-89 -15 -192 -37 -228 -49 -56 -19 -65 -25 -62 -44 3
    -18 11 -21 54 -24 l51 -3 -5 -49 c-4 -46 -2 -52 30 -84 51 -51 99 -61 270 -59
    152 2 192 11 186 41 -2 13 -12 16 -37 14 -19 -2 -53 2 -76 8 -30 8 -48 9 -62
    2 -14 -8 -30 -7 -59 3 -21 8 -52 14 -69 15 -78 1 -155 45 -155 88 0 33 32 62
    79 73 39 9 47 7 76 -16 45 -33 55 -32 55 9 0 31 4 36 38 47 39 14 137 16 357
    9 94 -4 143 -1 179 9 47 14 49 14 66 -9 12 -15 23 -20 37 -16 13 4 26 -1 38
    -14 15 -16 31 -20 86 -20 59 0 72 -3 95 -25 32 -30 40 -31 54 -6 21 39 -4 61
    -119 104 -53 20 -77 21 -386 22 -315 1 -337 0 -493 -26z"/>
    <path d="M3082 2225 c-17 -13 -63 -33 -102 -44 -38 -12 -71 -25 -74 -30 -3 -5
    20 -12 52 -16 87 -10 94 -18 50 -60 -60 -56 -124 -69 -305 -61 -124 5 -165 11
    -222 31 -77 27 -130 32 -149 13 -21 -21 -13 -26 32 -21 36 4 54 0 89 -20 24
    -14 49 -33 57 -41 17 -21 261 -22 415 -1 61 8 111 15 112 15 1 0 4 19 8 43 13
    79 33 100 83 92 61 -11 80 31 42 93 -23 37 -43 39 -88 7z"/>
    <path d="M1150 1812 c-31 -5 -74 -37 -154 -116 -34 -33 -198 -180 -364 -325
    -166 -145 -301 -265 -300 -267 2 -1 61 11 133 27 72 16 168 34 215 40 46 6
    113 19 149 29 116 32 147 -11 44 -60 -28 -13 -81 -26 -128 -31 -44 -5 -114
    -16 -155 -25 -43 -10 -124 -17 -192 -18 l-117 -1 -41 -35 c-56 -48 -77 -58
    -130 -65 -25 -3 -55 -8 -68 -11 l-22 -4 20 -40 c23 -46 44 -50 126 -25 32 10
    92 15 172 15 134 0 218 14 370 61 183 57 168 55 205 37 39 -19 51 -48 31 -77
    -16 -22 -116 -57 -241 -85 -40 -9 -104 -23 -143 -32 -57 -12 -86 -13 -164 -5
    -131 15 -240 14 -280 -3 -32 -13 -81 -64 -72 -74 3 -2 49 -16 103 -29 76 -19
    134 -26 259 -30 180 -6 243 1 409 48 90 25 115 29 138 20 16 -6 27 -18 27 -30
    0 -23 -57 -44 -170 -61 -41 -6 -97 -18 -125 -25 -110 -30 -222 -38 -351 -25
    -93 10 -135 11 -178 2 -61 -12 -126 -39 -126 -52 0 -12 92 -45 197 -69 192
    -45 444 -45 618 0 132 34 134 34 161 8 52 -49 24 -83 -76 -93 -78 -7 -133 -26
    -166 -57 -18 -17 -25 -18 -50 -8 -17 7 -88 13 -174 14 -150 2 -200 10 -369 61
    -46 14 -87 22 -91 17 -4 -4 -10 -26 -14 -49 l-6 -41 88 -41 c156 -72 325 -112
    471 -112 42 0 145 11 230 24 159 24 205 22 231 -9 19 -22 4 -45 -28 -45 -45 0
    -92 -11 -92 -22 0 -5 17 -9 38 -7 60 3 72 0 66 -16 -7 -19 -145 -20 -428 -5
    -172 10 -198 14 -295 45 -59 19 -151 53 -206 75 -54 22 -99 40 -99 40 -1 0 -1
    -24 -1 -52 l0 -53 115 -6 c112 -6 150 -14 150 -28 0 -18 -166 -51 -252 -51
    -47 0 -48 -1 -48 -30 l0 -30 594 0 593 0 -32 83 c-19 48 -38 118 -44 170 -7
    48 -16 98 -21 111 -12 34 -77 395 -96 538 -16 124 -15 432 2 487 6 21 -3 18
    -107 -35 -108 -56 -117 -59 -176 -56 -44 2 -63 7 -63 16 0 28 258 126 332 126
    24 0 28 6 42 53 26 87 91 210 130 244 33 28 47 66 29 75 -5 2 -19 2 -33 0z"/>
    <path d="M1125 1530 c-45 -99 30 -402 180 -730 82 -180 321 -623 345 -639 50
    -33 38 8 -41 144 -231 399 -314 577 -385 824 -41 144 -44 163 -44 275 0 131
    -5 166 -25 166 -6 0 -20 -18 -30 -40z"/>
    <path d="M1130 835 c0 -79 31 -223 65 -310 30 -75 81 -171 96 -181 5 -3 9 -48
    9 -100 0 -93 0 -94 24 -94 14 0 27 3 29 8 17 29 -177 690 -213 726 -7 7 -10
    -11 -10 -49z"/>
  </g>
</svg>